<svg width="57" height="57" viewBox="0 0 57 57" fill="none" xmlns="http://www.w3.org/2000/svg">
<path d="M1.79462 39.8243C1.26024 42.5006 4.31508 52.7918 20.2528 54.8491C28.4421 55.9045 36.4845 52.9966 42.8524 48.1205C49.2204 43.2443 53.1258 36.9609 54.4662 31.2209C56.528 22.3814 54.1589 9.0354 36.627 8.2472C18.6987 7.44118 12.6736 26.1844 8.91515 31.6929C4.39078 38.3325 2.28001 37.4062 1.79462 39.8243Z" fill="url(#paint0_radial_4077_10)"/>
<path d="M18.6541 16.1782C18.6541 16.1782 24.697 19.2509 34.0664 18.6007C41.6501 18.0752 44.6337 14.3524 44.6337 14.3524C44.6337 14.3524 47.9691 15.2698 50.1823 14.682C51.0684 14.4459 51.2599 13.965 50.1778 12.8428C48.5435 11.1417 42.9326 7.99334 34.6587 8.52326C24.3052 9.19568 18.6541 16.1782 18.6541 16.1782Z" fill="#DC0D27"/>
<path d="M11.5959 34.1198C12.6469 35.8699 15.7596 33.6122 17.9505 31.4168C21.1123 28.2462 22.5506 25.3427 23.3923 23.8687C24.2339 22.3948 25.3739 19.2197 23.0761 18.7076C20.6848 18.1777 19.9767 21.1345 18.7477 23.3121C17.5186 25.4897 15.8086 28.0814 14.437 29.7691C12.9809 31.5637 10.9725 33.0823 11.5959 34.1198Z" fill="#FFEBC9"/>
<path d="M45.5822 11.1239C45.2794 12.4465 46.4951 13.3727 47.3367 14.0363C48.1784 14.6998 50.0754 14.9491 50.7077 14.4905C51.3401 14.0363 50.6365 12.7003 51.0952 11.8943C51.5494 11.0883 52.3598 10.1041 51.3757 9.43619C50.5519 8.8751 49.443 8.6658 48.4277 8.8751C47.4124 9.0844 47.408 9.85924 46.9894 10.0685C46.5619 10.2823 45.6846 10.6697 45.5822 11.1239Z" fill="#6D4C41"/>
<path d="M44.5936 11.5247C43.4714 12.0145 40.1672 14.6196 32.4544 15.2119C23.9489 15.8665 13.9605 14.8556 12.2951 14.6196C10.6296 14.3836 7.78851 14.2723 7.82859 13.5598C7.88648 12.491 8.99086 12.8339 11.2174 12.1927C13.8937 11.4178 16.628 10.3491 18.712 9.10218C21.9094 7.18289 28.4198 2.38242 34.8279 2.26218C41.846 2.13304 44.1037 4.34179 45.8271 6.18539C47.5505 8.02898 47.5772 9.96164 47.1007 10.7365C46.6287 11.5113 45.9607 10.9324 44.5936 11.5247Z" fill="#518E30"/>
<path d="M22.4705 11.0972C22.6352 11.302 25.7435 11.4178 27.4758 11.3599C31.4302 11.2308 34.5607 10.1798 38.4572 9.7434C42.3537 9.307 45.7514 9.7434 45.8805 9.592C46.1166 9.3159 43.7252 6.06512 35.9011 6.94239C33.0199 7.26747 29.3149 8.73255 26.7588 9.75231C25.129 10.4159 22.3146 10.9012 22.4705 11.0972Z" fill="#366918"/>
<defs>
<radialGradient id="paint0_radial_4077_10" cx="0" cy="0" r="1" gradientUnits="userSpaceOnUse" gradientTransform="translate(33.5872 -27.437) scale(81.921)">
<stop offset="0.532" stop-color="#F33A1F"/>
<stop offset="0.615" stop-color="#F86922"/>
<stop offset="0.696" stop-color="#FD9124"/>
<stop offset="0.739" stop-color="#FFA025"/>
<stop offset="0.793" stop-color="#FCA025"/>
<stop offset="0.839" stop-color="#F1A124"/>
<stop offset="0.883" stop-color="#DFA222"/>
<stop offset="0.925" stop-color="#C7A41F"/>
<stop offset="0.962" stop-color="#AAA61C"/>
</radialGradient>
</defs>
</svg>
